# xmcd
#
# Track frame offsets:
# 150
# 14260
# 41320
# 61217
# 78602
# 89905
# 107147
# 131250
#
# Disc length: 2094 seconds
#
#
# Revision: 0
# Processed by: cddbd v1.5.1PL0 Copyright (c) Steve Scherf et al.
# Submitted via: FreeRIP 2.80 
#
DISCID=61082c08
DTITLE=Tail Dragger - Workin' Up A Storm
DYEAR=1998
DGENRE=Blues
TTITLE0=Workin' Up A Storm
TTITLE1=Ain't Gonna Give Up On love
TTITLE2=Cruel Thing
TTITLE3=Blues All Around
TTITLE4=Groove It
TTITLE5=Sundown
TTITLE6=Tail Dragger
TTITLE7=Cool Breeze
EXTD=
EXTT0=
EXTT1=
EXTT2=
EXTT3=
EXTT4=
EXTT5=
EXTT6=
EXTT7=
PLAYORDER=
